<?xml version="1.0" encoding="UTF-8" standalone="no"?>
<svg
   width="100"
   height="100"
   version="1.1"
   viewBox="0 0 74.999999 74.999999"
   id="svg372"
   sodipodi:docname="internet.svg"
   inkscape:version="1.2.1 (9c6d41e410, 2022-07-14, custom)"
   xmlns:inkscape="http://www.inkscape.org/namespaces/inkscape"
   xmlns:sodipodi="http://sodipodi.sourceforge.net/DTD/sodipodi-0.dtd"
   xmlns="http://www.w3.org/2000/svg"
   xmlns:svg="http://www.w3.org/2000/svg">
  <sodipodi:namedview
     id="namedview374"
     pagecolor="#ffffff"
     bordercolor="#000000"
     borderopacity="0.25"
     inkscape:showpageshadow="2"
     inkscape:pageopacity="0.0"
     inkscape:pagecheckerboard="0"
     inkscape:deskcolor="#d1d1d1"
     inkscape:document-units="pt"
     showgrid="false"
     inkscape:zoom="3.5742857"
     inkscape:cx="93.445244"
     inkscape:cy="87.84972"
     inkscape:window-width="1920"
     inkscape:window-height="1015"
     inkscape:window-x="0"
     inkscape:window-y="0"
     inkscape:window-maximized="1"
     inkscape:current-layer="g370" />
  <defs
     id="defs302">
    <symbol
       id="u"
       overflow="visible">
      <path
         d="m 18.766,-1.125 c -0.96875,0.5 -1.9805,0.875 -3.0312,1.125 -1.043,0.25781 -2.1367,0.39062 -3.2812,0.39062 -3.3984,0 -6.0898,-0.94531 -8.0781,-2.8438 -1.9922,-1.9062 -2.9844,-4.4844 -2.9844,-7.7344 0,-3.2578 0.99219,-5.8359 2.9844,-7.7344 1.9883,-1.9062 4.6797,-2.8594 8.0781,-2.8594 1.1445,0 2.2383,0.13281 3.2812,0.39062 1.0508,0.25 2.0625,0.625 3.0312,1.125 v 4.2188 c -0.98047,-0.65625 -1.9453,-1.1406 -2.8906,-1.4531 -0.94922,-0.3125 -1.9492,-0.46875 -3,-0.46875 -1.875,0 -3.3516,0.60547 -4.4219,1.8125 -1.0742,1.1992 -1.6094,2.8555 -1.6094,4.9688 0,2.1055 0.53516,3.7617 1.6094,4.9688 1.0703,1.1992 2.5469,1.7969 4.4219,1.7969 1.0508,0 2.0508,-0.14844 3,-0.45312 0.94531,-0.3125 1.9102,-0.80078 2.8906,-1.4688 z"
         id="path239" />
    </symbol>
    <symbol
       id="c"
       overflow="visible">
      <path
         d="m 13.734,-11.141 c -0.4375,-0.19531 -0.87109,-0.34375 -1.2969,-0.4375 -0.41797,-0.10156 -0.83984,-0.15625 -1.2656,-0.15625 -1.2617,0 -2.2305,0.40625 -2.9062,1.2188 -0.67969,0.80469 -1.0156,1.9531 -1.0156,3.4531 v 7.0625 H 2.3591 v -15.312 h 4.8906 v 2.5156 c 0.625,-1 1.3438,-1.7266 2.1562,-2.1875 0.82031,-0.46875 1.8008,-0.70312 2.9375,-0.70312 0.16406,0 0.34375,0.01172 0.53125,0.03125 0.19531,0.01172 0.47656,0.03906 0.84375,0.07813 z"
         id="path242" />
    </symbol>
    <symbol
       id="a"
       overflow="visible">
      <path
         d="m 17.641,-7.7031 v 1.4062 H 6.188 c 0.125,1.1484 0.53906,2.0078 1.25,2.5781 0.70703,0.57422 1.7031,0.85938 2.9844,0.85938 1.0312,0 2.082,-0.14844 3.1562,-0.45312 1.082,-0.3125 2.1914,-0.77344 3.3281,-1.3906 v 3.7656 c -1.1562,0.4375 -2.3125,0.76562 -3.4688,0.98438 -1.1562,0.22656 -2.3125,0.34375 -3.4688,0.34375 -2.7734,0 -4.9297,-0.70312 -6.4688,-2.1094 -1.5312,-1.4062 -2.2969,-3.3789 -2.2969,-5.9219 0,-2.5 0.75391,-4.4609 2.2656,-5.8906 1.5078,-1.4375 3.582,-2.1562 6.2188,-2.1562 2.4062,0 4.332,0.73047 5.7812,2.1875 1.4453,1.4492 2.1719,3.3828 2.1719,5.7969 z m -5.0312,-1.625 c 0,-0.92578 -0.27344,-1.6719 -0.8125,-2.2344 -0.54297,-0.57031 -1.25,-0.85938 -2.125,-0.85938 -0.94922,0 -1.7188,0.26562 -2.3125,0.79688 -0.5937,0.53126 -0.96484,1.2969 -1.1094,2.2969 z"
         id="path245" />
    </symbol>
    <symbol
       id="j"
       overflow="visible">
      <path
         d="m 9.2188,-6.8906 c -1.0234,0 -1.793,0.17188 -2.3125,0.51562 -0.51172,0.34375 -0.76562,0.85547 -0.76562,1.5312 0,0.625 0.20703,1.1172 0.625,1.4688 0.41406,0.34375 0.98828,0.51562 1.7188,0.51562 0.92578,0 1.7031,-0.32812 2.3281,-0.98438 0.63281,-0.66406 0.95312,-1.4922 0.95312,-2.4844 v -0.5625 z m 7.4688,-1.8438 V 0 h -4.9219 v -2.2656 c -0.65625,0.92969 -1.3984,1.6055 -2.2188,2.0312 -0.82422,0.41406 -1.8242,0.625 -3,0.625 -1.5859,0 -2.8711,-0.45703 -3.8594,-1.375 -0.99219,-0.92578 -1.4844,-2.1289 -1.4844,-3.6094 0,-1.7891 0.61328,-3.1016 1.8438,-3.9375 1.2383,-0.84375 3.1797,-1.2656 5.8281,-1.2656 h 2.8906 v -0.39062 c 0,-0.76953 -0.30859,-1.332 -0.92188,-1.6875 -0.61719,-0.36328 -1.5703,-0.54688 -2.8594,-0.54688 -1.0547,0 -2.0312,0.10547 -2.9375,0.3125 -0.89844,0.21094 -1.7305,0.52344 -2.5,0.9375 v -3.7344 c 1.0391,-0.25 2.0859,-0.44141 3.1406,-0.57812 1.0625,-0.13281 2.125,-0.20312 3.1875,-0.20312 2.7578,0 4.75,0.54688 5.9688,1.6406 1.2266,1.0859 1.8438,2.8555 1.8438,5.3125 z"
         id="path248" />
    </symbol>
    <symbol
       id="b"
       overflow="visible">
      <path
         d="m 7.7031,-19.656 v 4.3438 H 12.75 v 3.5 H 7.7031 v 6.5 c 0,0.71094 0.14062,1.1875 0.42188,1.4375 0.28126,0.25 0.83594,0.375 1.6719,0.375 h 2.5156 v 3.5 h -4.1875 c -1.9375,0 -3.3125,-0.39844 -4.125,-1.2031 -0.80469,-0.8125 -1.2031,-2.1797 -1.2031,-4.1094 v -6.5 h -2.4219 v -3.5 h 2.4219 v -4.3438 z"
         id="path251" />
    </symbol>
    <symbol
       id="i"
       overflow="visible">
      <path
         d="m 12.766,-13.078 v -8.2031 h 4.9219 V -1e-4 H 12.766 v -2.2188 c -0.66797,0.90625 -1.4062,1.5703 -2.2188,1.9844 -0.8126,0.4141 -1.7578,0.625 -2.8281,0.625 -1.8867,0 -3.4336,-0.75 -4.6406,-2.25 -1.2109,-1.5 -1.8125,-3.4258 -1.8125,-5.7812 0,-2.3633 0.60156,-4.2969 1.8125,-5.7969 1.207,-1.5 2.7539,-2.25 4.6406,-2.25 1.0625,0 2,0.21484 2.8125,0.64062 0.82031,0.42969 1.5664,1.0859 2.2344,1.9688 z m -3.2188,9.9219 c 1.0391,0 1.8359,-0.37891 2.3906,-1.1406 0.55078,-0.76953 0.82812,-1.8828 0.82812,-3.3438 0,-1.457 -0.27734,-2.5664 -0.82812,-3.3281 -0.55469,-0.76953 -1.3516,-1.1562 -2.3906,-1.1562 -1.043,0 -1.8398,0.38672 -2.3906,1.1562 -0.55469,0.76172 -0.82812,1.8711 -0.82812,3.3281 0,1.4609 0.27344,2.5742 0.82812,3.3438 0.55078,0.76172 1.3477,1.1406 2.3906,1.1406 z"
         id="path254" />
    </symbol>
    <symbol
       id="h"
       overflow="visible">
      <path
         d="m 10.5,-3.1562 c 1.0508,0 1.8516,-0.37891 2.4062,-1.1406 0.55078,-0.76953 0.82812,-1.8828 0.82812,-3.3438 0,-1.457 -0.27734,-2.5664 -0.82812,-3.3281 -0.55469,-0.76953 -1.3555,-1.1562 -2.4062,-1.1562 -1.0547,0 -1.8594,0.38672 -2.4219,1.1562 -0.55469,0.77344 -0.82812,1.8828 -0.82812,3.3281 0,1.4492 0.27344,2.5586 0.82812,3.3281 0.5625,0.77344 1.3672,1.1562 2.4219,1.1562 z m -3.25,-9.9219 c 0.67578,-0.88281 1.4219,-1.5391 2.2344,-1.9688 0.82031,-0.42578 1.7656,-0.64062 2.8281,-0.64062 1.8945,0 3.4453,0.75 4.6562,2.25 1.207,1.5 1.8125,3.4336 1.8125,5.7969 0,2.3555 -0.60547,4.2812 -1.8125,5.7812 -1.2109,1.5 -2.7617,2.25 -4.6562,2.25 -1.0625,0 -2.0078,-0.21094 -2.8281,-0.625 C 8.6719,-0.6602 7.9258,-1.32032 7.25,-2.21882 V -2e-5 H 2.3594 v -21.281 H 7.25 Z"
         id="path257" />
    </symbol>
    <symbol
       id="g"
       overflow="visible">
      <path
         d="m 0.34375,-15.312 h 4.8906 l 4.125,10.391 3.5,-10.391 h 4.8906 l -6.4375,16.766 c -0.64844,1.6953 -1.4023,2.8828 -2.2656,3.5625 -0.86719,0.6875 -2,1.0312 -3.4062,1.0312 H 2.79685 V 2.8289 h 1.5312 c 0.83203,0 1.4375,-0.13672 1.8125,-0.40625 C 6.52336,2.16093 6.82024,1.69218 7.03117,1.01645 L 7.17179,0.59457 Z"
         id="path260" />
    </symbol>
    <symbol
       id="e"
       overflow="visible">
      <path
         d="m 10.047,-11.359 c 1.1016,0 1.8945,-0.20312 2.375,-0.60938 0.47656,-0.41406 0.71875,-1.0938 0.71875,-2.0312 0,-0.92578 -0.24219,-1.5859 -0.71875,-1.9844 -0.48047,-0.40625 -1.2734,-0.60938 -2.375,-0.60938 H 7.8282 v 5.2344 z M 7.8282,-7.7184 V 4e-4 h -5.25 v -20.406 h 8.0312 c 2.6875,0 4.6562,0.45312 5.9062,1.3594 1.2578,0.89844 1.8906,2.3203 1.8906,4.2656 0,1.3555 -0.32812,2.4648 -0.98438,3.3281 -0.64844,0.86719 -1.625,1.5 -2.9375,1.9062 0.71875,0.16797 1.3594,0.54297 1.9219,1.125 0.57031,0.57422 1.1484,1.4492 1.7344,2.625 l 2.8594,5.7969 h -5.6094 l -2.4844,-5.0781 c -0.5,-1.0195 -1.0117,-1.7109 -1.5312,-2.0781 -0.51172,-0.375 -1.1953,-0.5625 -2.0469,-0.5625 z"
         id="path263" />
    </symbol>
    <symbol
       id="f"
       overflow="visible">
      <path
         d="m 11.891,-16.969 c -1.6055,0 -2.8516,0.59375 -3.7344,1.7812 -0.875,1.1875 -1.3125,2.8555 -1.3125,5 0,2.1484 0.4375,3.8125 1.3125,5 0.88281,1.1797 2.1289,1.7656 3.7344,1.7656 1.6133,0 2.8633,-0.58594 3.75,-1.7656 0.88281,-1.1875 1.3281,-2.8516 1.3281,-5 0,-2.1445 -0.44531,-3.8125 -1.3281,-5 -0.88672,-1.1875 -2.1367,-1.7812 -3.75,-1.7812 z m 0,-3.8125 c 3.2812,0 5.8477,0.9375 7.7031,2.8125 1.8633,1.875 2.7969,4.4688 2.7969,7.7812 0,3.3047 -0.93359,5.8906 -2.7969,7.7656 -1.8555,1.875 -4.4219,2.8125 -7.7031,2.8125 -3.2734,0 -5.8398,-0.9375 -7.7031,-2.8125 -1.8672,-1.875 -2.7969,-4.4609 -2.7969,-7.7656 0,-3.3125 0.92969,-5.9062 2.7969,-7.7812 1.8633,-1.875 4.4297,-2.8125 7.7031,-2.8125 z"
         id="path266" />
    </symbol>
    <symbol
       id="t"
       overflow="visible">
      <path
         d="m 2.5781,-20.406 h 5.25 v 7.4375 l 7.5938,-7.4375 h 6.1094 l -9.8281,9.6562 10.844,10.75 H 15.9534 L 7.8284,-8.0467 V 2e-4 h -5.25 z"
         id="path269" />
    </symbol>
    <symbol
       id="s"
       overflow="visible">
      <path
         d="m 12.422,-21.281 v 3.2188 H 9.7189 c -0.6875,0 -1.1719,0.125 -1.4531,0.375 -0.27344,0.25 -0.40625,0.6875 -0.40625,1.3125 v 1.0625 h 4.1875 v 3.5 H 7.85955 V -2e-4 h -4.8906 v -11.812 h -2.4375 v -3.5 h 2.4375 v -1.0625 c 0,-1.6641 0.46094,-2.8984 1.3906,-3.7031 0.92578,-0.80078 2.3672,-1.2031 4.3281,-1.2031 z"
         id="path272" />
    </symbol>
    <symbol
       id="d"
       overflow="visible">
      <path
         d="m 9.6406,-12.188 c -1.0859,0 -1.9141,0.39062 -2.4844,1.1719 -0.57422,0.78125 -0.85938,1.9062 -0.85938,3.375 0,1.4688 0.28516,2.5938 0.85938,3.375 0.57031,0.77344 1.3984,1.1562 2.4844,1.1562 1.0625,0 1.875,-0.38281 2.4375,-1.1562 0.57031,-0.78125 0.85938,-1.9062 0.85938,-3.375 0,-1.4688 -0.28906,-2.5938 -0.85938,-3.375 -0.5625,-0.78125 -1.375,-1.1719 -2.4375,-1.1719 z m 0,-3.5 c 2.6328,0 4.6914,0.71484 6.1719,2.1406 1.4766,1.418 2.2188,3.3867 2.2188,5.9062 0,2.5117 -0.74219,4.4805 -2.2188,5.9062 C 14.332,-0.317 12.2734,0.39 9.6406,0.39 6.9922,0.39 4.9258,-0.31703 3.4375,-1.735 1.9453,-3.1608 1.2031,-5.1295 1.2031,-7.6412 c 0,-2.5195 0.74219,-4.4883 2.2344,-5.9062 1.4883,-1.4258 3.5547,-2.1406 6.2031,-2.1406 z"
         id="path275" />
    </symbol>
    <symbol
       id="r"
       overflow="visible">
      <path
         d="m 16.547,-12.766 c 0.61328,-0.94531 1.3477,-1.6719 2.2031,-2.1719 0.85156,-0.5 1.7891,-0.75 2.8125,-0.75 1.7578,0 3.0977,0.54688 4.0156,1.6406 0.92578,1.0859 1.3906,2.6562 1.3906,4.7188 V -4e-4 h -4.9219 v -7.9844 -0.35938 c 0.0078,-0.13281 0.01563,-0.32031 0.01563,-0.5625 0,-1.082 -0.16406,-1.8633 -0.48438,-2.3438 -0.3125,-0.48828 -0.82422,-0.73438 -1.5312,-0.73438 -0.92969,0 -1.6484,0.38672 -2.1562,1.1562 -0.51172,0.76172 -0.77344,1.8672 -0.78125,3.3125 v 7.5156 h -4.9219 v -7.9844 c 0,-1.6953 -0.14844,-2.7852 -0.4375,-3.2656 -0.29297,-0.48828 -0.8125,-0.73438 -1.5625,-0.73438 -0.9375,0 -1.6641,0.38672 -2.1719,1.1562 -0.51172,0.76172 -0.76562,1.8594 -0.76562,3.2969 v 7.5312 h -4.9219 v -15.312 h 4.9219 v 2.2344 c 0.60156,-0.86328 1.2891,-1.5156 2.0625,-1.9531 0.78125,-0.4375 1.6406,-0.65625 2.5781,-0.65625 1.0625,0 2,0.25781 2.8125,0.76562 0.8125,0.51172 1.4258,1.2305 1.8438,2.1562 z"
         id="path278" />
    </symbol>
    <symbol
       id="q"
       overflow="visible">
      <path
         d="M 17.75,-9.3281 V 0 h -4.9219 v -7.1094 c 0,-1.3438 -0.03125,-2.2656 -0.09375,-2.7656 -0.0625,-0.5 -0.16797,-0.86719 -0.3125,-1.1094 -0.1875,-0.3125 -0.44922,-0.55469 -0.78125,-0.73438 -0.32422,-0.17578 -0.69531,-0.26562 -1.1094,-0.26562 -1.0234,0 -1.8242,0.39844 -2.4062,1.1875 -0.58594,0.78125 -0.875,1.8711 -0.875,3.2656 V -1e-4 H 2.3594 v -21.281 H 7.25 v 8.2031 c 0.73828,-0.88281 1.5195,-1.5391 2.3438,-1.9688 0.83203,-0.42578 1.75,-0.64062 2.75,-0.64062 1.7695,0 3.1133,0.54688 4.0312,1.6406 0.91406,1.0859 1.375,2.6562 1.375,4.7188 z"
         id="path281" />
    </symbol>
    <symbol
       id="p"
       overflow="visible">
      <path
         d="m 2.5781,-20.406 h 5.875 l 7.4219,14 v -14 h 4.9844 V 0 h -5.875 L 7.5625,-14 V 0 H 2.5781 Z"
         id="path284" />
    </symbol>
    <symbol
       id="o"
       overflow="visible">
      <path
         d="m 2.1875,-5.9688 v -9.3438 h 4.9219 v 1.5312 c 0,0.83594 -0.00781,1.875 -0.015625,3.125 -0.011719,1.25 -0.015625,2.0859 -0.015625,2.5 0,1.2422 0.03125,2.1328 0.09375,2.6719 0.070313,0.54297 0.17969,0.93359 0.32812,1.1719 0.20703,0.32422 0.47266,0.57422 0.79688,0.75 0.32031,0.16797 0.69141,0.25 1.1094,0.25 1.0195,0 1.8203,-0.39062 2.4062,-1.1719 0.58203,-0.78125 0.875,-1.8672 0.875,-3.2656 v -7.5625 h 4.8906 V -6e-4 H 12.6875 V -2.2194 C 11.94531,-1.32096 11.1641,-0.6608 10.3437,-0.235 9.51948,0.17906 8.6093,0.39 7.6093,0.39 5.8476,0.39 4.5038,-0.14906 3.5781,-1.235 2.64841,-2.317 2.1875,-3.8952 2.1875,-5.9694 Z"
         id="path287" />
    </symbol>
    <symbol
       id="n"
       overflow="visible">
      <path
         d="M 17.75,-9.3281 V 0 h -4.9219 v -7.1406 c 0,-1.3203 -0.03125,-2.2344 -0.09375,-2.7344 -0.0625,-0.5 -0.16797,-0.86719 -0.3125,-1.1094 -0.1875,-0.3125 -0.44922,-0.55469 -0.78125,-0.73438 -0.32422,-0.17578 -0.69531,-0.26562 -1.1094,-0.26562 -1.0234,0 -1.8242,0.39844 -2.4062,1.1875 -0.58594,0.78125 -0.875,1.8711 -0.875,3.2656 V -1e-4 H 2.3594 v -15.312 H 7.25 v 2.2344 c 0.73828,-0.88281 1.5195,-1.5391 2.3438,-1.9688 0.83203,-0.42578 1.75,-0.64062 2.75,-0.64062 1.7695,0 3.1133,0.54688 4.0312,1.6406 0.91406,1.0859 1.375,2.6562 1.375,4.7188 z"
         id="path290" />
    </symbol>
    <symbol
       id="m"
       overflow="visible">
      <path
         d="m 2.5781,-20.406 h 8.7344 c 2.5938,0 4.582,0.57812 5.9688,1.7344 1.3945,1.1484 2.0938,2.7891 2.0938,4.9219 0,2.1367 -0.69922,3.7812 -2.0938,4.9375 -1.3867,1.1562 -3.375,1.7344 -5.9688,1.7344 H 7.8281 V 3e-4 h -5.25 z m 5.25,3.8125 v 5.7031 H 10.75 c 1.0195,0 1.8047,-0.25 2.3594,-0.75 0.5625,-0.5 0.84375,-1.2031 0.84375,-2.1094 0,-0.91406 -0.28125,-1.6172 -0.84375,-2.1094 -0.55469,-0.48828 -1.3398,-0.73438 -2.3594,-0.73438 z"
         id="path293" />
    </symbol>
    <symbol
       id="l"
       overflow="visible">
      <path
         d="M 2.3594,-15.312 H 7.25 v 15.031 c 0,2.0508 -0.49609,3.6172 -1.4844,4.7031 -0.98047,1.082 -2.4062,1.625 -4.2812,1.625 H -0.9375 V 2.8283 h 0.85938 c 0.92578,0 1.5625,-0.21094 1.9062,-0.625 0.35156,-0.41797 0.53125,-1.2461 0.53125,-2.4844 z m 0,-5.9688 H 7.25 v 4 H 2.3594 Z"
         id="path296" />
    </symbol>
    <symbol
       id="k"
       overflow="visible">
      <path
         d="m 14.719,-14.828 v 3.9844 c -0.65625,-0.45703 -1.3242,-0.79688 -2,-1.0156 -0.66797,-0.21875 -1.3594,-0.32812 -2.0781,-0.32812 -1.3672,0 -2.4336,0.40234 -3.2031,1.2031 -0.76172,0.79297 -1.1406,1.9062 -1.1406,3.3438 0,1.4297 0.37891,2.543 1.1406,3.3438 0.76953,0.79297 1.8359,1.1875 3.2031,1.1875 0.75781,0 1.4844,-0.10938 2.1719,-0.32812 0.6875,-0.22656 1.3203,-0.56641 1.9062,-1.0156 v 4 c -0.76172,0.28125 -1.5391,0.48828 -2.3281,0.625 -0.78125,0.14453 -1.5742,0.21875 -2.375,0.21875 -2.7617,0 -4.9219,-0.70703 -6.4844,-2.125 -1.5547,-1.4141 -2.3281,-3.3828 -2.3281,-5.9062 0,-2.5312 0.77344,-4.5039 2.3281,-5.9219 1.5625,-1.4141 3.7227,-2.125 6.4844,-2.125 0.80078,0 1.5938,0.07422 2.375,0.21875 0.78125,0.13672 1.5547,0.35156 2.3281,0.64062 z"
         id="path299" />
    </symbol>
  </defs>
  <g
     id="g370">
    <path
       d="M 61.867462,30.937562 H 60.675204 C 62.21517,25.260813 60.81357,19.190568 56.940626,14.763512 53.067663,10.336462 47.23693,8.1397232 41.406015,8.911861 35.5751,9.6839923 30.516499,13.321661 27.929013,18.604177 24.366595,17.664273 20.568884,18.42996 17.649568,20.677573 c -2.920041,2.247573 -4.631325,5.722627 -4.633532,9.40765 v 0.86319 c -4.1790962,0.05092 -8.0124162,2.327956 -10.0579142,5.972787 -2.04476595,3.644094 -1.98952595,8.102717 0.144105,11.696153 2.133625,3.593436 6.02216,5.774937 10.2012562,5.724097 h 6.711151 c 1.925654,4.717408 5.654538,8.47199 10.358915,10.429948 4.704566,1.95869 9.996255,1.95869 14.700814,0 4.70456,-1.957958 8.43253,-5.71254 10.358367,-10.429948 h 6.403726 c 4.180389,0 8.043252,-2.230318 10.133172,-5.85092 2.090651,-3.620603 2.090651,-8.081244 0,-11.701846 -2.08992,-3.620596 -5.952783,-5.85092 -10.133172,-5.85092 z m -2.611153,-4.675931 c 0.0033,1.82317 -0.316893,3.63272 -0.94563,5.343998 -0.02507,0.07313 -0.04231,0.149126 -0.05092,0.226559 h -2.754502 c -0.0645,-0.268128 -0.276015,-0.475322 -0.54488,-0.534839 L 54.734531,15.294721 h -6.53e-4 c 2.909954,2.906467 4.538276,6.854676 4.522496,10.966969 z m -43.998916,14.533062 2.929404,-8.705816 h 7.739319 c -3.586098,2.82186 -6.04584,6.831002 -6.937821,11.306144 l -3.268579,-1.613828 c 0.09678,-0.195723 0.101087,-0.424423 0.01149,-0.623005 -0.08962,-0.199307 -0.26312,-0.347709 -0.473892,-0.405065 z m -0.09249,-9.49722 3.977576,-3.381816 v 6.53e-4 c 0.03584,0.0459 0.07743,0.08747 0.123317,0.123311 l -1.263958,3.75165 -2.78533,-6.53e-4 c 0,0 -0.03082,-0.30828 -0.05164,-0.49325 z m 34.225661,3.299414 c -1.243157,0.82305 -2.569492,1.512023 -3.957388,2.055415 -1.209462,-2.383759 -2.818916,-4.5425 -4.758332,-6.382077 3.267841,0.572119 6.296908,2.086251 8.71572,4.357498 z M 20.7352,45.903031 c 0.237312,-3.627027 1.631737,-7.081157 3.977576,-9.857131 1.402325,0.978613 2.908668,1.798791 4.49166,2.446162 -0.952087,2.377328 -1.504124,4.894517 -1.634603,7.451898 z m 10.411407,-6.772817 v -6.53e-4 c 1.805235,0.536987 3.669237,0.851 5.550474,0.935608 v 5.838077 h -7.071063 c 0.137649,-2.305569 0.650982,-4.572598 1.520628,-6.711889 z m 5.550474,-7.832552 v 6.783648 c -1.582992,-0.0803 -3.151666,-0.339123 -4.676479,-0.770701 1.18509,-2.269053 2.76955,-4.305926 4.676479,-6.012986 z m 0,16.732543 v 6.074651 c -1.881237,0.0846 -3.745219,0.398621 -5.550474,0.93489 -0.90549,-2.231786 -1.423112,-4.602696 -1.531381,-7.009391 z m 0,8.130066 v 6.783649 c -1.907111,-1.707028 -3.491389,-3.743757 -4.676479,-6.012987 1.524206,-0.435182 3.092939,-0.697578 4.676479,-0.780742 z m 2.055415,6.793742 v -6.814484 c 1.592315,0.06811 3.170939,0.316892 4.707315,0.740603 -1.190117,2.285565 -2.785337,4.336756 -4.707315,6.052995 z m 0,-8.849157 v -6.06382 h 7.061152 c -0.104671,2.394584 -0.61585,4.754662 -1.511305,6.978562 -1.804517,-0.536276 -3.668498,-0.851 -5.549736,-0.935608 z m 0,-8.119235 v -5.858813 c 1.886924,-0.07313 3.75752,-0.377108 5.570661,-0.904772 0.862472,2.150848 1.365763,4.428519 1.490511,6.742719 z m 0,-7.893486 v -6.794473 c 1.922161,1.717062 3.51727,3.768162 4.707315,6.053726 -1.537113,0.41653 -3.11643,0.658137 -4.707315,0.719809 z m -8.705815,-1.43888 v -6.53e-4 c -1.366475,-0.547028 -2.672088,-1.236001 -3.895169,-2.055415 2.383021,-2.235462 5.35831,-3.737326 8.571648,-4.326661 -1.90785,1.840308 -3.489373,3.991162 -4.676479,6.362072 z m -2.476992,11.367078 c 0.105389,2.633364 0.657426,5.230017 1.634603,7.677648 -1.584422,0.633765 -3.094225,1.440329 -4.50157,2.404677 C 22.3074,55.267956 20.90721,51.726275 20.714497,48.020333 Z m 2.476992,9.558148 c 1.191546,2.355861 2.772299,4.492945 4.676479,6.321142 -3.209662,-0.580724 -6.184957,-2.071933 -8.571648,-4.295825 1.224531,-0.808693 2.530032,-1.487651 3.895169,-2.025317 z m 15.416967,0 c 1.387987,0.543431 2.714303,1.232404 3.957388,2.056146 -2.436799,2.246104 -5.477429,3.732377 -8.746562,4.27509 1.937954,-1.836822 3.547375,-3.991893 4.758338,-6.372166 z m 0.832367,-1.8805 h 6.52e-4 c 0.955665,-2.451849 1.486926,-5.047953 1.572233,-7.677648 h 6.906985 c -0.188547,3.695117 -1.577266,7.228167 -3.957388,10.062138 -1.422401,-0.975748 -2.949414,-1.789468 -4.552594,-2.42542 z m 1.572957,-9.733063 c -0.128332,-2.542332 -0.673213,-5.045752 -1.613828,-7.410969 1.606646,-0.632335 3.137348,-1.442477 4.563235,-2.415326 2.32925,2.77175 3.711635,6.213586 3.946747,9.826295 z m 6.906979,-8.376734 c -0.129762,0.02651 -0.250925,0.08675 -0.34985,0.174935 -1.232405,-2.185908 -2.879856,-4.110275 -4.85084,-5.663717 h 4.460824 c 0.01795,0.357743 0.291782,0.648833 0.647384,0.688973 z M 43.758142,10.742474 c 4.000524,0 7.844669,1.55576 10.719563,4.337493 l 0.22584,16.218465 c -0.278881,0.03872 -0.511178,0.235144 -0.595773,0.504004 h -4.861481 c -2.165903,-1.638912 -4.657944,-2.79598 -7.307643,-3.391733 z m -14.317217,9.49722 c 1.163576,-2.778906 3.112943,-5.156972 5.608652,-6.843845 2.495716,-1.686873 5.429344,-2.608959 8.441155,-2.653375 l -1.78875,17.63738 c -2.36724,-0.508306 -4.812116,-0.547029 -7.194399,-0.113276 l -5.3139,-7.667554 c 0.107543,-0.100375 0.191426,-0.222961 0.247353,-0.35918 z m -1.284747,0.564937 c 0.264544,0.08962 0.553466,0.06668 0.801531,-0.06163 l 5.252235,7.564405 h -6.53e-4 c -2.8771,0.549888 -5.589203,1.755772 -7.924322,3.525895 h -8.005991 l 1.2231,-3.618396 c 0.07456,0.01221 0.151274,0.01221 0.225841,0 0.294661,0.0013 0.562071,-0.172781 0.680361,-0.44307 0.118297,-0.269577 0.06522,-0.584308 -0.1355,-0.800107 l 7.451898,-6.33123 z m -3.258491,-0.554896 c 0.853866,-6.53e-4 1.70343,0.109692 2.528569,0.329075 l -7.379402,6.259471 h -0.08245 l 2.055415,-6.167152 c 0.93344,-0.2796 1.903442,-0.417966 2.877832,-0.411522 z m -3.176077,0.534121 -2.055409,5.971326 v 6.52e-4 c -0.404346,0.0059 -0.72985,0.334808 -0.72985,0.739866 -0.01077,0.07169 -0.01077,0.144105 0,0.215806 l -3.895168,3.309325 v -0.94563 c 0.0072,-2.050459 0.655277,-4.047141 1.852608,-5.711071 1.197991,-1.664002 2.886456,-2.912154 4.827897,-3.569579 z m -8.386645,12.210792 h 0.873943 c 0.305421,0 0.595773,-0.135507 0.790777,-0.369939 0.121881,-0.154141 0.196441,-0.339835 0.216518,-0.53484 h 2.713571 l -2.950145,8.67498 c -0.248783,0.01293 -0.473892,0.152711 -0.596492,0.369933 L 5.6264808,36.838956 v -6.53e-4 c 1.820304,-2.42395 4.6764792,-3.848552 7.7084842,-3.843413 z m -9.6614802,9.609719 c -6.53e-4,-2.006037 0.628757,-3.961789 1.798791,-5.591403 l 8.8289702,4.326661 c -0.0033,0.038 -0.0033,0.076 0,0.113277 0.0026,0.215805 0.100368,0.418683 0.266691,0.554902 l -3.360897,9.97973 v 6.53e-4 C 9.0741728,51.508556 7.1677928,50.31844 5.7991698,48.614259 4.4305468,46.909379 3.6806208,44.790118 3.6734648,42.60421 Z m 9.6405552,9.640562 c -0.630899,0 -1.261086,-0.06163 -1.8805,-0.18497 l 3.33025,-9.907965 c 0.276015,0.113988 0.594344,0.03944 0.791496,-0.184969 l 3.391178,1.66472 c -0.549888,2.869207 -0.41224,5.827977 0.401487,8.63405 z m 48.532242,0 h -5.683905 c 1.254629,-4.39989 0.863902,-9.105736 -1.099776,-13.238215 0.124741,-0.02076 0.241601,-0.07385 0.339116,-0.154141 l 13.618138,10.216304 c -1.818143,2.041098 -4.419901,3.211138 -7.152922,3.216825 z M 69.184761,48.843102 55.576535,38.657627 c 0.06522,-0.108973 0.101086,-0.232996 0.102516,-0.359897 -0.002,-0.365637 -0.274585,-0.673206 -0.636644,-0.719803 l -0.07169,-4.809909 h -6.52e-4 c 0.316174,-0.07241 0.54631,-0.344131 0.565655,-0.668179 h 2.712834 c 0.06307,0.519052 0.50544,0.90835 1.028089,0.904772 h 2.600329 c 2.469835,-0.0052 4.84717,0.939186 6.641044,2.636851 1.793046,1.698416 2.865538,4.020522 2.995293,6.487609 0.130486,2.466343 -0.692551,4.888093 -2.297858,6.764924 z"
       id="path304"
       style="stroke-width:0.183535;fill:#0000c6;fill-opacity:1" />
  </g>
</svg>
