<?xml version="1.0" encoding="utf-8"?>
<!-- Generator: Adobe Illustrator 21.0.0, SVG Export Plug-In . SVG Version: 6.00 Build 0)  -->
<svg version="1.1" id="lake" xmlns="http://www.w3.org/2000/svg" xmlns:xlink="http://www.w3.org/1999/xlink" x="0px" y="0px"
	 viewBox="0 0 11 5.1" style="enable-background:new 0 0 11 5.1;" xml:space="preserve">
<style type="text/css">
	.st0{fill:#2C68B1;}
	.st1{fill:#3EB5E9;}
</style>
<title>lake</title>
<path class="st0" d="M7,4.1H4.1c-0.9,0-1.6-0.7-1.6-1.6v0c0-0.9,0.7-1.6,1.6-1.6H7c0.9,0,1.6,0.7,1.6,1.6v0C8.7,3.4,7.9,4.1,7,4.1z"
	/>
<path class="st1" d="M5.5,0C2.5,0,0,1.1,0,2.6s2.5,2.6,5.5,2.6S11,4,11,2.6S8.5,0,5.5,0z M7.7,3.6C7.4,3.5,7.1,3.4,7,3.1
	C6.8,3.5,6.3,3.7,5.9,3.5C5.7,3.4,5.6,3.3,5.5,3.1C5.3,3.6,4.8,3.7,4.4,3.5C4.2,3.5,4.1,3.3,4,3.1C3.9,3.4,3.6,3.6,3.3,3.6
	c-0.1,0-0.1,0-0.1-0.1c0-0.1,0-0.1,0.1-0.1c0.3,0,0.6-0.3,0.6-0.6c0-0.1,0-0.1,0.1-0.1c0.1,0,0.1,0,0.1,0.1c0,0.3,0.3,0.6,0.6,0.6
	s0.6-0.3,0.6-0.6c0-0.1,0-0.1,0.1-0.1c0.1,0,0.1,0,0.1,0.1c0,0.3,0.3,0.6,0.6,0.6s0.6-0.3,0.6-0.6c0-0.1,0-0.1,0.1-0.1
	C7,2.6,7,2.7,7,2.7c0,0.3,0.3,0.6,0.6,0.6c0.1,0,0.1,0,0.1,0.1C7.8,3.5,7.7,3.6,7.7,3.6C7.7,3.6,7.7,3.6,7.7,3.6L7.7,3.6z M7.7,2.1
	C7.4,2.1,7.1,1.9,7,1.7C6.8,2.1,6.3,2.2,5.9,2C5.7,1.9,5.6,1.8,5.5,1.7C5.3,2.1,4.8,2.3,4.4,2.1C4.2,2,4.1,1.8,4,1.7
	C3.9,1.9,3.6,2.1,3.3,2.1C3.2,2.1,3.2,2,3.2,2c0-0.1,0-0.1,0.1-0.1c0.3,0,0.6-0.3,0.6-0.6c0-0.1,0-0.1,0.1-0.1c0.1,0,0.1,0,0.1,0.1
	c0,0.3,0.3,0.6,0.6,0.6s0.6-0.3,0.6-0.6c0-0.1,0-0.1,0.1-0.1c0.1,0,0.1,0,0.1,0.1c0,0.3,0.3,0.6,0.6,0.6s0.6-0.3,0.6-0.6
	c0-0.1,0-0.1,0.1-0.1C7,1.1,7,1.2,7,1.2c0,0.3,0.3,0.6,0.6,0.6c0.1,0,0.1,0,0.1,0.1C7.8,2,7.7,2.1,7.7,2.1C7.7,2.1,7.7,2.1,7.7,2.1
	L7.7,2.1z"/>
</svg>
