<?xml version="1.0" encoding="utf-8"?>
<!-- Generator: Adobe Illustrator 21.0.0, SVG Export Plug-In . SVG Version: 6.00 Build 0)  -->
<svg version="1.1" id="special-site" xmlns="http://www.w3.org/2000/svg" xmlns:xlink="http://www.w3.org/1999/xlink" x="0px"
	 y="0px" viewBox="0 0 10.6 11" style="enable-background:new 0 0 10.6 11;" xml:space="preserve">
<style type="text/css">
	.st0{fill:none;stroke:#60EF50;stroke-width:1.2795;stroke-miterlimit:10;}
	.st1{fill:none;stroke:#0070E7;stroke-width:1.0663;stroke-miterlimit:10;}
</style>
<path class="st0" d="M9.9-0.1c0,0.2-0.2,0.4-0.3,0.5C9.2,0.5,8.9,0.6,8.5,0.6c-0.2,0-0.5-0.1-0.8,0C7.4,0.7,7.3,1,7.3,1.3
	C7.2,1.8,7.4,2.4,7.7,2.9s0.5,1,0.7,1.5s0,1.2-0.5,1.5C7.4,6.2,6.9,6.2,6.4,6.2C5.6,6.1,4.9,6,4.1,6.1C3.7,6.1,3.4,6.2,3,6.5
	C2.7,6.7,2.4,7.1,2.4,7.6c0,0.4,0,0.9,0.2,1.3c0.1,0.3,0.3,0.6,0.2,0.9c-0.1,0.3-0.5,0.4-0.8,0.5c-0.3,0-0.7-0.1-1-0.1
	C0.6,10,0.2,10-0.2,10"/>
<path class="st1" d="M9.9-0.3c0,0.3-0.2,0.6-0.5,0.7S8.8,0.6,8.4,0.5c-0.2,0-0.7-0.1-0.9,0C7.4,0.7,7.3,1.1,7.3,1.3
	C7.2,1.8,7.4,2.4,7.7,2.9s0.5,1,0.7,1.5c0.1,0.5,0,1.2-0.5,1.5C7.4,6.2,6.9,6.2,6.4,6.2C5.6,6.1,4.9,6,4.1,6.1
	C3.7,6.1,3.4,6.2,3,6.5C2.7,6.7,2.4,7.1,2.4,7.6c0,0.4,0,0.9,0.2,1.3c0.1,0.3,0.3,0.6,0.2,0.9c-0.1,0.3-0.5,0.4-0.8,0.5
	s-0.7-0.1-1-0.1C0.6,10,0.2,10-0.2,10"/>
</svg>
