<?xml version="1.0" encoding="UTF-8" standalone="no"?>
<!-- Created with Inkscape (http://www.inkscape.org/) -->

<svg
   width="100"
   height="100"
   viewBox="0 0 26.458333 26.458333"
   version="1.1"
   id="svg1578"
   inkscape:version="1.2.1 (9c6d41e410, 2022-07-14, custom)"
   sodipodi:docname="tplink-wdr.svg"
   xmlns:inkscape="http://www.inkscape.org/namespaces/inkscape"
   xmlns:sodipodi="http://sodipodi.sourceforge.net/DTD/sodipodi-0.dtd"
   xmlns="http://www.w3.org/2000/svg"
   xmlns:svg="http://www.w3.org/2000/svg">
  <sodipodi:namedview
     id="namedview1580"
     pagecolor="#ffffff"
     bordercolor="#000000"
     borderopacity="0.25"
     inkscape:showpageshadow="2"
     inkscape:pageopacity="0.0"
     inkscape:pagecheckerboard="0"
     inkscape:deskcolor="#d1d1d1"
     inkscape:document-units="mm"
     showgrid="false"
     inkscape:zoom="2.1014404"
     inkscape:cx="51.869184"
     inkscape:cy="59.007146"
     inkscape:window-width="1920"
     inkscape:window-height="1015"
     inkscape:window-x="0"
     inkscape:window-y="0"
     inkscape:window-maximized="1"
     inkscape:current-layer="layer1" />
  <defs
     id="defs1575" />
  <g
     inkscape:label="Camada 1"
     inkscape:groupmode="layer"
     id="layer1">
    <g
       id="g3537"
       transform="matrix(0.67954823,0,0,0.67954823,-6.4936206,8.3892109)">
      <path
         style="fill:#000000;stroke-width:0.264583;stroke:#000000;stroke-opacity:1"
         d="m 14.627036,24.70423 c -0.436563,-0.06805 -1.031875,-0.338699 -1.322917,-0.601446 -0.338083,-0.305215 -1.174075,-0.544023 -2.315104,-0.661331 l -1.7859374,-0.183608 0.00372,-1.23571 c 0.00311,-1.032814 0.8607924,-4.919943 2.1055444,-9.5426 0.271472,-1.008168 0.279299,-1.012989 1.880699,-1.158198 0.88445,-0.0802 1.654955,-0.19268 1.712233,-0.249957 0.158429,-0.15843 -1.098308,-9.4498965 -2.10361,-15.5526655 -0.953833,-5.7903235 -0.93131,-6.1813025 0.347516,-6.0326475 0.683089,0.0794 0.685926,0.09034 1.908093,7.3555641 0.673194,4.00182287 1.506935,8.786561 1.85276,10.6327494 l 0.628772,3.3567075 11.276348,0.08288 11.276348,0.08287 0.94555,-5.2916663 c 0.520049,-2.9104167 1.255617,-7.4943229 1.63459,-10.1864582 0.378976,-2.6921354 0.799627,-5.1626823 0.934778,-5.4901041 0.280639,-0.6798824 1.094383,-0.7835604 1.57784,-0.2010304 0.32674,0.3936991 -0.09291,4.1579661 -1.194903,10.71821772 -0.20778,1.23692708 -0.558763,3.89327148 -0.779965,5.90298638 -0.221202,2.0097168 -0.475083,3.9444819 -0.564182,4.2994789 -0.127182,0.506733 -0.05632,0.650338 0.329706,0.668192 0.354515,0.0164 0.307152,0.0781 -0.169755,0.22116 -0.363802,0.10913 -3.995208,0.108516 -8.069791,-0.0013 -4.074583,-0.109879 -9.61099,-0.110429 -12.303125,-0.0013 -2.692135,0.109207 -5.06448,0.112943 -5.271878,0.0083 -0.207397,-0.10464 -0.654326,-1.245407 -0.993175,-2.5350415 l -0.61609,-2.3447295 0.126192,2.5796874 0.126191,2.5796876 -0.852807,0.0029 c -0.469045,0.0016 -1.287652,0.07482 -1.819127,0.162711 -0.86803,0.143547 -0.99458,0.271084 -1.244157,1.253861 -0.15281,0.601731 -0.629077,2.503408 -1.058371,4.225948 l -0.780534,3.131892 4.670524,-0.158753 c 4.942279,-0.167987 5.62766,0.174321 0.966357,0.48264 -1.455208,0.09625 -3.419739,0.25636 -4.365625,0.355793 l -1.7197914,0.180787 1.4552084,0.18202 c 0.800364,0.100113 2.645833,0.202166 4.101042,0.226785 4.440159,0.07512 4.141124,0.493594 -0.396875,0.555392 -2.682564,0.03653 -3.623737,0.113845 -2.72108,0.223523 0.898294,0.109146 1.559535,0.360421 1.894434,0.719891 0.494252,0.530519 0.850783,0.558983 9.07108,0.724247 4.706134,0.09461 11.263916,0.07359 14.572851,-0.04672 5.663956,-0.205938 6.052277,-0.2526 6.631636,-0.796877 0.338465,-0.317974 0.905375,-0.579443 1.259797,-0.581046 1.602052,-0.0072 2.628781,-0.329639 2.628781,-0.825455 0,-0.419394 -0.231195,-0.502775 -1.521354,-0.548683 -2.536378,-0.09025 -3.618693,-0.0039 -3.718941,0.296897 -0.141851,0.425553 -0.845121,0.346917 -0.845121,-0.0945 0,-0.231253 -0.337839,-0.423224 -0.859896,-0.488619 -0.764077,-0.09571 -0.741963,-0.1095 0.198437,-0.123727 0.582084,-0.0088 1.703255,-0.02705 2.491494,-0.04055 2.421692,-0.04146 1.253781,-0.358445 -1.357879,-0.368544 -2.245526,-0.0087 -2.297445,-0.01966 -0.604448,-0.127746 l 1.852083,-0.118245 -2.645833,-1.29999 c -1.899473,-0.933278 -2.384608,-1.259539 -1.719792,-1.156584 0.878697,0.136078 5.640102,2.077852 6.230834,2.541032 0.152742,0.119761 0.797613,0.300881 1.433047,0.402492 0.989264,0.158189 1.132226,0.124526 0.994574,-0.234191 -0.08842,-0.230412 -0.238228,-0.831871 -0.332912,-1.336574 l -0.172148,-0.917641 -2.952218,-0.252003 c -2.460969,-0.210071 -2.710072,-0.268049 -1.49701,-0.348427 0.800364,-0.05303 -0.628386,-0.164497 -3.175,-0.2477 l -4.630208,-0.151281 5.920052,-0.05665 5.920052,-0.05665 -0.168122,-0.840603 c -0.09247,-0.462333 -0.218382,-0.890865 -0.279813,-0.952296 -0.06143,-0.06143 -1.935424,-0.260773 -4.16443,-0.442979 -3.523226,-0.288001 -3.828039,-0.347048 -2.332948,-0.451932 1.361104,-0.09549 1.085191,-0.136022 -1.322916,-0.194368 -2.316181,-0.05612 -2.85318,-0.131146 -2.248959,-0.314214 0.781648,-0.236823 9.881624,0.15753 10.164585,0.440489 0.07464,0.07464 0.27485,0.635955 0.44491,1.247367 0.170064,0.611413 0.62729,2.166255 1.016061,3.455205 0.388768,1.288947 0.670499,2.717696 0.626065,3.175 -0.07953,0.818525 -0.109408,0.835128 -1.921004,1.067615 -1.364475,0.175103 -1.956904,0.380309 -2.291564,0.79375 -0.448318,0.553852 -0.547736,0.557834 -14.828531,0.593981 -7.907454,0.02001 -14.734376,-0.01928 -15.170938,-0.08733 z M 47.10464,17.833069 c -0.181901,-0.0734 -0.479558,-0.0734 -0.661459,0 -0.181901,0.0734 -0.03307,0.133453 0.330729,0.133453 0.363803,0 0.512631,-0.06006 0.33073,-0.133453 z m -1.984375,-3.182157 c -0.254662,-0.06655 -0.671381,-0.06655 -0.926042,0 -0.254661,0.06655 -0.0463,0.121002 0.463021,0.121002 0.509323,0 0.717682,-0.05445 0.463021,-0.121002 z m -3.06232,-4.8481664 c 0.198848,-1.320075 0.227225,-3.8722723 0.03379,-3.0392396 -0.06758,0.2910416 -0.351425,1.2858485 -0.630766,2.2106837 -0.62302,2.0626813 -0.626301,2.2165073 -0.04487,2.1047263 0.323882,-0.06227 0.516758,-0.445762 0.641846,-1.2761704 z M 15.463723,5.7713185 c -0.0734,-0.1819011 -0.133452,-0.033073 -0.133452,0.3307291 0,0.3638021 0.06005,0.5126303 0.133452,0.3307292 0.0734,-0.181901 0.0734,-0.4795573 0,-0.6614583 z M 42.451222,5.2421518 c -0.0734,-0.181901 -0.133453,-0.033073 -0.133453,0.3307292 0,0.3638021 0.06005,0.5126302 0.133453,0.3307292 0.0734,-0.1819011 0.0734,-0.4795573 0,-0.6614584 z m -27.252083,-0.79375 c -0.0734,-0.181901 -0.133452,-0.033073 -0.133452,0.3307292 0,0.3638021 0.06005,0.5126302 0.133452,0.3307292 0.0734,-0.1819011 0.0734,-0.4795573 0,-0.6614584 z M 42.582995,4.0131234 c 0.168341,0.2452171 0.194051,-0.01959 0.07658,-0.7888309 -0.110807,-0.7256417 -0.08092,-1.0986907 0.08006,-0.9992029 0.342128,0.2114473 0.997101,-4.5577201 0.670753,-4.8840691 -0.146502,-0.1465022 -0.429096,0.9874059 -0.715354,2.87036691 -0.582255,3.82997519 -0.638288,4.26833549 -0.485955,3.80173599 0.103095,-0.3157882 0.157131,-0.3157882 0.37392,0 z M 14.940068,3.1420216 c -0.08446,-0.2110668 -0.147157,-0.1483719 -0.159852,0.1598526 -0.01149,0.2789147 0.05105,0.4351842 0.138964,0.3472656 0.08792,-0.087919 0.09732,-0.3161221 0.02089,-0.5071182 z m 0.264583,-1.0583333 c -0.08446,-0.2110668 -0.147156,-0.148372 -0.159852,0.1598525 -0.01149,0.2789148 0.05105,0.4351843 0.138964,0.3472657 0.08792,-0.087919 0.09732,-0.3161221 0.02089,-0.5071182 z m -0.22571,-1.40559892 c -0.0063,-0.4253931 -0.04932,-0.39944965 -0.219613,0.13229167 -0.289722,0.90465535 -0.289722,1.60025955 0,0.92604165 0.125064,-0.2910417 0.22389,-0.76729165 0.219613,-1.05833332 z m -0.56804,-0.71106769 c -0.08446,-0.21106686 -0.147156,-0.14837199 -0.159852,0.15985251 -0.01149,0.27891475 0.05105,0.43518428 0.138964,0.34726562 0.08792,-0.0879189 0.09732,-0.31612204 0.02089,-0.50711813 z M 14.140806,-1.9015981 c -0.0734,-0.181901 -0.133452,-0.033073 -0.133452,0.3307292 0,0.3638021 0.06005,0.5126302 0.133452,0.3307291 0.0734,-0.181901 0.0734,-0.4795572 0,-0.6614583 z m -0.259071,-1.3063802 c -0.08446,-0.2110668 -0.147157,-0.148372 -0.159853,0.1598525 -0.01149,0.2789148 0.05105,0.4351843 0.138965,0.3472657 0.08792,-0.087919 0.09732,-0.3161221 0.02089,-0.5071182 z m 30.758377,-5.9696614 c 0.0094,-0.3274218 -0.104198,-0.5953125 -0.252492,-0.5953125 -0.15953,0 -0.197792,0.2862059 -0.0937,0.7009218 0.111342,0.4436216 0.07807,0.6404477 -0.09063,0.5361821 -0.35139,-0.21717 -0.979596,4.3579303 -0.709493,5.1670941 0.148428,0.4446572 0.326747,-0.1720474 0.665948,-2.3031563 0.254786,-1.6007292 0.470953,-3.1783073 0.480375,-3.5057292 z m -30.493794,4.1175781 c -0.08446,-0.2110668 -0.147157,-0.148372 -0.159852,0.1598525 -0.01149,0.2789148 0.05105,0.4351843 0.138964,0.3472657 0.08792,-0.087919 0.09732,-0.3161221 0.02089,-0.5071182 z m -0.325059,-1.9227389 c -0.101208,-0.6749032 -0.238133,-1.1729773 -0.304279,-1.1068315 -0.06615,0.066146 -0.03746,0.6724584 0.06375,1.3473615 0.101208,0.6749031 0.238134,1.1729773 0.30428,1.1068315 0.06615,-0.066146 0.03746,-0.6724584 -0.06375,-1.3473615 z M 20.669017,21.82697 c -0.22052,-0.574664 0.339311,-1.115089 0.740026,-0.714374 0.338675,0.338677 0.128866,1.129035 -0.299716,1.129035 -0.154655,0 -0.352795,-0.186598 -0.44031,-0.414661 z m 1.704588,0.230873 c -0.257927,-0.509005 -0.0327,-1.006837 0.455514,-1.006837 0.351562,0 0.529167,0.17639 0.529167,0.525542 0,0.517771 -0.774396,0.896281 -0.984681,0.481295 z m 1.74497,-0.204877 c -0.08015,-0.20886 -0.06861,-0.50451 0.02563,-0.656998 0.286915,-0.46424 0.933872,-0.309332 0.933872,0.223605 0,0.616601 -0.757844,0.958906 -0.959502,0.433393 z m 1.780475,-0.08964 c -0.316088,-0.590616 -0.146343,-0.844616 0.564444,-0.844616 0.366302,0 0.480436,0.156544 0.418923,0.574588 -0.112094,0.761791 -0.642268,0.907375 -0.983367,0.270028 z m 1.743964,-0.06705 c -0.0893,-0.341511 0.0047,-0.601883 0.251511,-0.69659 0.517469,-0.198573 1.000551,0.301694 0.798864,0.82728 -0.227703,0.593384 -0.882325,0.511932 -1.050375,-0.13069 z m 1.764755,0.150246 c -0.09164,-0.238818 -0.03975,-0.561083 0.115308,-0.716145 0.403122,-0.403122 1.166921,-0.03468 1.06162,0.512098 -0.11729,0.609039 -0.96511,0.756029 -1.176928,0.204047 z m 1.941261,0.227862 c -0.102044,-0.102045 -0.185536,-0.412097 -0.185536,-0.689007 0,-0.370779 0.156895,-0.481187 0.595312,-0.418923 0.389179,0.05527 0.595313,0.266523 0.595313,0.61009 0,0.52483 -0.654108,0.84882 -1.005089,0.49784 z m 1.666547,-0.494216 c 0,-0.485068 0.141111,-0.661458 0.529167,-0.661458 0.388056,0 0.529167,0.17639 0.529167,0.661458 0,0.485069 -0.141111,0.661459 -0.529167,0.661459 -0.388056,0 -0.529167,-0.17639 -0.529167,-0.661459 z m 1.773037,0.494216 c -0.406435,-0.406432 -0.140036,-0.801241 0.760314,-1.12681 0.520216,-0.188114 1.01631,-0.271564 1.102429,-0.185444 0.08612,0.08612 -0.03358,0.15658 -0.265988,0.15658 -0.236096,0 -0.45988,0.261512 -0.507119,0.592609 -0.08368,0.586544 -0.731435,0.921266 -1.089636,0.563065 z m 1.798838,-0.344856 0.529167,-0.210325 -0.529167,-0.137263 c -0.41103,-0.106619 -0.366728,-0.144113 0.198438,-0.167955 0.48401,-0.02043 0.727604,0.102177 0.727604,0.366183 0,0.261075 -0.248968,0.390512 -0.727604,0.378278 -0.633389,-0.01619 -0.659083,-0.04583 -0.198438,-0.228918 z m 1.719792,-1.050139 c 1.383757,-0.134489 1.338286,-0.149118 -0.926042,-0.29793 l -2.38125,-0.156498 2.447396,-0.05 c 2.021295,-0.04129 2.447396,0.0191 2.447396,0.346877 0,0.312439 -0.323676,0.386461 -1.521354,0.347933 l -1.521354,-0.04894 z m -4.812109,-3.381002 c 0.190994,-0.07643 0.419197,-0.06703 0.507119,0.02088 0.08792,0.08792 -0.06835,0.150453 -0.347266,0.138964 -0.308226,-0.0127 -0.370919,-0.07539 -0.159853,-0.15985 z m 0.975651,-0.596953 c 1.164166,-0.08848 2.473854,-0.08095 2.910416,0.01675 0.436563,0.09769 -0.515937,0.17009 -2.116666,0.160885 -2.890481,-0.01662 -2.895918,-0.01783 -0.79375,-0.177623 z m -8.444498,-0.743542 c -0.08495,-0.08495 -0.154461,-0.313209 -0.154461,-0.507238 0,-0.273659 0.68674,-0.352777 3.062108,-0.352777 2.773886,0 3.053715,0.04358 2.972914,0.463021 -0.07763,0.402997 -0.454565,0.468751 -2.907649,0.507238 -1.550149,0.02432 -2.887959,-0.02529 -2.972912,-0.110244 z m 5.616763,-1.834505 c 0.190995,-0.07643 0.419198,-0.06703 0.507119,0.02088 0.08792,0.08792 -0.06835,0.150453 -0.347265,0.138964 -0.308227,-0.0127 -0.37092,-0.07539 -0.159854,-0.15985 z m 14.373987,-1.123428 c -0.248941,-0.83089 -0.459338,-1.065305 -1.034579,-1.152689 -0.673253,-0.102272 -0.664623,-0.112372 0.127609,-0.149334 0.781769,-0.03647 0.873053,0.0471 1.141867,1.045398 0.377846,1.403215 0.175017,1.624801 -0.234897,0.256625 z"
         id="path1573" />
    </g>
  </g>
</svg>
