<?xml version="1.0" encoding="UTF-8" standalone="no"?>
<!-- Created with Inkscape (http://www.inkscape.org/) -->

<svg
   version="1.1"
   id="svg2"
   width="100"
   height="100"
   viewBox="0 0 99.999999 99.999999"
   sodipodi:docname="tplink-c7-100ox.svg"
   inkscape:version="1.2.1 (9c6d41e410, 2022-07-14, custom)"
   xmlns:inkscape="http://www.inkscape.org/namespaces/inkscape"
   xmlns:sodipodi="http://sodipodi.sourceforge.net/DTD/sodipodi-0.dtd"
   xmlns="http://www.w3.org/2000/svg"
   xmlns:svg="http://www.w3.org/2000/svg">
  <defs
     id="defs6" />
  <sodipodi:namedview
     id="namedview4"
     pagecolor="#ffffff"
     bordercolor="#000000"
     borderopacity="0.25"
     inkscape:showpageshadow="2"
     inkscape:pageopacity="0.0"
     inkscape:pagecheckerboard="0"
     inkscape:deskcolor="#d1d1d1"
     showgrid="false"
     inkscape:zoom="3.4808027"
     inkscape:cx="12.353472"
     inkscape:cy="103.71171"
     inkscape:window-width="1920"
     inkscape:window-height="1015"
     inkscape:window-x="0"
     inkscape:window-y="0"
     inkscape:window-maximized="1"
     inkscape:current-layer="g8" />
  <g
     inkscape:groupmode="layer"
     inkscape:label="Image"
     id="g8">
    <g
       id="g402"
       transform="matrix(0.20643932,0,0,0.20643932,-17.73369,-3.1206794)">
      <path
         style="fill:#000000;stroke-width:1.33333"
         d="m 252.63987,441.03218 c 0.91667,-0.36988 2.41667,-0.36988 3.33333,0 0.91667,0.36988 0.16667,0.67252 -1.66666,0.67252 -1.83334,0 -2.58334,-0.30264 -1.66667,-0.67252 z m 145.33333,-0.058 c 1.65,-0.31782 4.35,-0.31782 6,0 1.65,0.3178 0.3,0.57782 -3,0.57782 -3.3,0 -4.65,-0.26002 -3,-0.57782 z m 20.08333,0.0301 c 0.96249,-0.38516 2.1125,-0.3378 2.55556,0.1052 0.44305,0.44305 -0.34446,0.75819 -1.75,0.70029 -1.55327,-0.064 -1.8692,-0.37992 -0.80556,-0.80554 z m -203.74999,-1.71556 c -41.94186,-0.71155 -60.61555,-1.49361 -63.70777,-2.66816 -2.40594,-0.91385 -5.55676,-1.35237 -7.00184,-0.97448 -1.50947,0.39473 -2.2869,0.13613 -1.82714,-0.60777 0.44015,-0.71218 -1.3454,-4.52648 -3.96789,-8.47623 -5.32789,-8.02437 -4.19629,-7.61448 -27.49536,-9.9596 -7.7,-0.77502 -16.250004,-1.74946 -19.000004,-2.16541 l -5,-0.75628 v -11.04382 -11.04386 l 9,-0.85397 c 30.121824,-2.85812 119.363254,-7.02431 169.666664,-7.9208 13.37733,-0.23841 10.63797,-0.43529 -10.66666,-0.76663 -15.76667,-0.24521 -27.64486,-0.7148 -26.39599,-1.04353 1.24888,-0.32873 2.63931,-1.75913 3.08985,-3.17867 0.45055,-1.41952 1.55016,-2.58096 2.4436,-2.58096 0.89344,0 1.66883,-1.05 1.72307,-2.33333 0.0543,-1.28333 1.09087,-4.58333 2.30361,-7.33333 1.67508,-3.79842 1.80015,-5.04812 0.52042,-5.20026 -0.92651,-0.11014 1.01544,-0.62002 4.31544,-1.13308 17.49913,-2.72058 -56.58998,-0.61377 -109.66667,3.1185 -16.69842,1.1742 -22.33333,1.18664 -22.33333,0.0493 0,-0.92075 3.81552,-1.85896 9.66667,-2.37699 17.30493,-1.53208 71.52645,-4.64853 107.66666,-6.18828 34.33348,-1.46281 46.17245,-2.60256 27.03335,-2.60256 h -9.4111 l 4.1766,-8.60569 c 3.99523,-8.23198 4.40872,-8.62717 9.5222,-9.10038 9.70649,-0.89827 -20.98466,-0.96694 -38.26476,-0.0856 l -16.9437,0.86417 -0.38963,8.79708 c -0.35853,8.09514 -0.63163,8.80929 -3.42248,8.94996 -1.66806,0.0841 -3.35347,-0.36594 -3.74535,-1 -0.39188,-0.63408 -1.8129,-1.15287 -3.15783,-1.15287 -2.74194,0 -4.05409,-2.49804 -4.08438,-7.77572 -0.0428,-7.46032 -0.19064,-7.49292 -26.19889,-5.77736 -28.19521,1.85983 -34.17443,1.93551 -33.23823,0.42072 0.38491,-0.6228 13.6621,-1.92838 29.50486,-2.9013 l 28.80503,-1.76895 -0.80927,-6.09869 c -0.4451,-3.35428 -1.04183,-9.0987 -1.32606,-12.76536 -4.76315,-61.44692 -6.57682,-80.97361 -10.03118,-108 -4.44102,-34.74589 -14.22289,-112.533385 -15.2981,-121.653762 -0.57745,-4.898115 -0.23495,-5.936581 2.56244,-7.769503 3.76538,-2.46717 8.65314,-2.103696 10.17474,0.756635 0.58516,1.1 5.32912,36.8 10.54213,79.33333 5.21301,42.53333 11.91114,92.33333 14.88474,110.66666 4.32047,26.63733 5.37358,36.48489 5.24244,49.02211 l -0.1641,15.68876 16.3516,-0.82139 c 32.04961,-1.60995 49.58945,-2.83479 43.35159,-3.02733 -5.81669,-0.17954 -8.03946,-1.65032 -5.17221,-3.42238 0.63861,-0.39469 1.50915,-2.45777 1.93452,-4.58464 0.42537,-2.12688 1.74573,-4.83936 2.93412,-6.02774 1.99207,-1.99207 1.55488,-2.17738 -5.60119,-2.37411 -11.90327,-0.32723 -2.40786,-1.11724 26.05082,-2.16741 l 25.8127,-0.95254 0.44654,-8.66666 c 0.24558,-4.76667 0.84737,-57.16028 1.33728,-116.43026 l 0.89076,-107.763595 3.18333,-1.450422 c 2.29289,-1.044711 4.07336,-1.044898 6.3652,-6.67e-4 l 3.18187,1.449755 0.89678,97.097589 c 0.49324,53.40368 1.3114,105.7976 1.81814,116.43093 l 0.92134,19.33333 48.66667,0.81647 c 26.76666,0.44905 54.43934,1.26461 61.49483,1.81235 l 12.82816,0.99586 0.94179,-7.81233 c 0.51799,-4.29679 2.96135,-20.41235 5.42969,-35.81235 2.46835,-15.39999 8.72559,-62.49999 13.905,-104.66666 5.1794,-42.16666 9.86336,-79.004228 10.4088,-81.861258 1.22355,-6.408894 4.12908,-8.521769 9.25469,-6.729915 3.0216,1.056313 3.81391,2.219768 4.13864,6.07727 0.22088,2.623969 -4.10013,40.413043 -9.60225,83.975703 -5.50213,43.56268 -10.96477,92.10404 -12.13922,107.86969 -1.17444,15.76567 -2.47442,31.13852 -2.88882,34.16191 l -0.75345,5.49706 9.8244,0.81895 c 5.40341,0.45043 14.7347,1.20159 20.73618,1.66924 l 10.91179,0.85029 8.08821,10.43451 c 4.44852,5.73897 8.08822,10.84881 8.08822,11.3552 0,0.50639 0.83397,1.58684 1.85326,2.40103 3.0441,2.43151 16.8134,20.9649 16.8134,22.63071 0,0.84782 1.05432,2.19991 2.34294,3.00467 1.28861,0.80475 6.68861,7.14451 11.99999,14.08836 l 9.65707,12.62519 v 10.89902 c 0,5.99447 -0.15,10.92251 -0.33333,10.9512 -0.18334,0.0287 -10.36203,1.18012 -22.61932,2.55872 -12.25728,1.37859 -22.88752,2.87831 -23.62275,3.33269 -0.73521,0.4544 -3.2967,4.10298 -5.69218,8.10796 -4.24315,7.09406 -4.51068,7.28231 -10.37726,7.3022 -3.75457,0.0133 -5.35884,0.4408 -4.26092,1.13694 1.01911,0.64617 -6.84428,1.47536 -18.66666,1.96837 -33.73395,1.40676 -206.89419,1.99232 -270.42756,0.91448 z m 310.66665,-36.01297 c 5.5,-0.53323 8.49568,-1.05748 6.65705,-1.16503 -3.11462,-0.18217 -3.31074,-0.60032 -2.87154,-6.1225 0.33074,-4.15854 1.12926,-6.07984 2.67628,-6.43931 6.11374,-1.4206 -45.32502,-4.4826 -97.12845,-5.78177 -19.43334,-0.48736 -35.01779,-0.53788 -34.63212,-0.11227 0.38567,0.42563 5.48567,0.89325 11.33333,1.03919 5.84767,0.14593 11.83212,0.73822 13.29879,1.31618 2.32264,0.91528 2.3596,1.06295 0.28642,1.14456 -1.89438,0.0745 -2.11125,0.59635 -1.06241,2.55612 0.91599,1.71154 0.82865,2.96032 -0.28641,4.09524 -1.25403,1.27636 -1.16764,1.53927 0.39573,1.20427 1.32859,-0.28469 2.14195,0.80565 2.42285,3.24795 0.55439,4.8203 -2.01517,5.7238 -17.55361,6.17204 -6.69914,0.19324 -12.48529,0.68226 -12.85809,1.08672 -0.92849,1.00732 116.87218,-1.03439 129.32218,-2.24139 z m -109.33333,-3.94853 c 0,-0.69006 -0.6,-1.62547 -1.33333,-2.0787 -0.73334,-0.45322 -1.33334,0.11134 -1.33334,1.25464 0,1.14328 0.6,2.0787 1.33334,2.0787 0.73333,0 1.33333,-0.56459 1.33333,-1.25464 z m -129.33333,-0.8889 c 0,-1.1035 -2.58897,-1.72753 -3.18254,-0.7671 -0.38508,0.62308 0.17345,1.13286 1.2412,1.13286 1.06773,0 1.94134,-0.1646 1.94134,-0.36576 z m 44,0.22223 c 0,-0.32339 -0.6,-0.9588 -1.33333,-1.41203 -0.73333,-0.45322 -1.33333,-0.18864 -1.33333,0.58798 0,0.77661 0.6,1.41202 1.33333,1.41202 0.73333,0 1.33333,-0.26458 1.33333,-0.58797 z m 65.99056,-0.73009 c 0.46712,-0.75582 -0.0681,-0.97934 -1.25464,-0.52402 -2.30989,0.88639 -2.73252,1.84208 -0.81461,1.84208 0.69005,0 1.62122,-0.59313 2.06925,-1.31806 z m 28.6761,0.0266 c 0,-0.71031 -0.9,-0.94612 -2,-0.52401 -1.1,0.42212 -2,1.00328 -2,1.29149 0,0.2882 0.9,0.52401 2,0.52401 1.1,0 2,-0.58117 2,-1.29149 z m -2.66666,-6.70851 c 0,-0.73333 -0.63542,-1.33333 -1.41203,-1.33333 -0.77661,0 -1.0412,0.6 -0.58797,1.33333 0.45322,0.73334 1.08864,1.33334 1.41202,1.33334 0.32339,0 0.58798,-0.6 0.58798,-1.33334 z m -38.33333,-8.99342 c -6.78334,-0.24199 -17.88334,-0.24199 -24.66667,0 -6.78333,0.24198 -1.23333,0.43998 12.33333,0.43998 13.56667,0 19.11667,-0.198 12.33334,-0.43998 z m -74.61367,-40.33991 c 0.46463,-1.77676 1.74015,-2.61505 3.82218,-2.512 2.25946,0.11187 2.47865,0.32354 0.79149,0.76444 -3.89967,1.01908 -2.6114,3.19816 1.33333,2.25528 5.247,-1.25414 6.19912,-2.0174 4.14235,-3.32064 -2.58384,-1.6372 -8.34133,-1.45018 -14.49668,0.4709 -5.97799,1.86572 -6.74445,3.21405 -2.31233,4.06771 5.5521,1.06938 6.02017,0.94918 6.71966,-1.72569 z m 44.58589,-0.80556 c -0.44306,-0.44305 -1.59306,-0.49041 -2.55556,-0.1052 -1.06364,0.42563 -0.7477,0.74158 0.80556,0.80555 1.40555,0.0579 2.19306,-0.25724 1.75,-0.70029 z M 180.52291,194.91523 c -0.36988,-0.91667 -0.67251,-0.16667 -0.67251,1.66666 0,1.83334 0.30263,2.58334 0.67251,1.66667 0.36989,-0.91667 0.36989,-2.41667 0,-3.33333 z m 296.02776,-2.58334 c -0.42562,-1.06364 -0.74157,-0.7477 -0.80554,0.80556 -0.0579,1.40555 0.25724,2.19306 0.70029,1.75 0.44305,-0.44306 0.49041,-1.59306 0.1052,-2.55556 z M 179.22564,183.5819 c -0.33537,-1.28334 -0.60976,-0.23334 -0.60976,2.33333 0,2.56667 0.27439,3.61667 0.60976,2.33333 0.33537,-1.28333 0.33537,-3.38333 0,-4.66666 z m 298.67154,-2.6413 c -0.33805,-1.29729 -0.63688,-0.5587 -0.66405,1.6413 -0.0272,2.2 0.24941,3.26141 0.61465,2.3587 0.36523,-0.9027 0.38745,-2.7027 0.0495,-4 z m -300.00487,-8.02537 c -0.33537,-1.28333 -0.60977,-0.23333 -0.60977,2.33333 0,2.56667 0.2744,3.61667 0.60977,2.33334 0.33537,-1.28334 0.33537,-3.38334 0,-4.66667 z m 307.09237,-41.54114 c 2.98174,-23.03096 5.73435,-42.380961 6.11694,-43 0.38258,-0.619037 -0.20578,-1.125524 -1.30747,-1.125524 -1.10169,0 -2.93711,-1.333504 -4.07869,-2.963341 -1.14158,-1.629839 -2.0756,-2.303305 -2.0756,-1.496593 0,0.806712 0.9,2.213682 2,3.126601 2.73781,2.27218 2.63877,4.054737 -2.66667,47.999997 -4.14881,34.36481 -5.40837,47.77045 -3.88357,41.33333 0.26056,-1.1 2.91335,-20.84352 5.89506,-43.87447 z m -311.92135,0.93743 c -2.24464,-18.55129 -4.31748,-35.529621 -4.60632,-37.729621 -0.30984,-2.359924 0.53997,-5.913422 2.07261,-8.666666 1.7052,-3.063243 1.82822,-3.635893 0.35805,-1.666667 -1.23185,1.65 -3.13073,3 -4.21975,3 -1.08901,0 -1.69809,0.75 -1.3535,1.666667 0.34458,0.916666 2.95878,19.580007 5.80932,41.474077 2.85054,21.89408 5.37134,38.87241 5.60177,37.72963 0.23044,-1.1428 -1.41754,-17.25614 -3.66218,-35.80742 z m 145.54726,-16.73053 c 0.27368,-22.391935 -0.0299,-29.66735 -1.2378,-29.666665 -0.88023,4.99e-4 -2.21199,-1.049092 -2.95946,-2.332425 -0.74748,-1.283334 -1.35821,-1.733334 -1.35718,-1 10e-4,0.733333 0.88278,2.49801 1.95945,3.921506 1.58247,2.092193 2.00055,8.863218 2.18173,35.333334 0.26326,38.4593 0.90123,35.63533 1.41326,-6.25575 z"
         id="path293" />
      <path
         style="fill:none;stroke:#000000;stroke-width:0.3"
         d="M 252.9851,310.55315 H 143.15976 l -57.134246,81.5334"
         id="path398" />
    </g>
  </g>
</svg>
