<?xml version="1.0" encoding="utf-8"?>
<!-- Generator: Adobe Illustrator 21.0.0, SVG Export Plug-In . SVG Version: 6.00 Build 0)  -->
<svg version="1.1" id="tree" xmlns="http://www.w3.org/2000/svg" xmlns:xlink="http://www.w3.org/1999/xlink" x="0px" y="0px"
	 viewBox="0 0 11 10.9" style="enable-background:new 0 0 11 10.9;" xml:space="preserve">
<style type="text/css">
	.st0{fill:#0A891F;}
</style>
<title>tree</title>
<path class="st0" d="M9.5,6.6L9.5,6.6c0.4-0.3,0.6-0.7,0.6-1.2c0-0.1,0-0.1,0-0.2c0.9-0.4,1.3-1.4,1-2.3c-0.3-0.7-1-1.1-1.7-1.1
	C9,2,8.7,2,8.5,2.1c0-0.7-0.6-1.2-1.2-1.2L7.1,1C7,0.4,6.4-0.1,5.8-0.1C5.3,0,4.9,0.3,4.7,0.7C4.5,0.6,4.3,0.5,4.1,0.5
	c-0.4,0-0.8,0.2-1,0.6C2.9,1,2.7,1,2.6,0.9c-0.8,0-1.5,0.7-1.5,1.5c0,0.2,0,0.4,0.1,0.6C0.4,3.2-0.1,4,0,4.8c0.1,0.6,0.6,1,1.1,1.2
	c0.2,0.8,1.1,1.2,1.9,1c0.3-0.1,0.5-0.2,0.7-0.4h0.1c0.3,0,0.6-0.1,0.9-0.3v3.8l-1.6,1h5l-1.6-1v-4h0.2c0.2,0,0.4,0,0.5-0.1
	C7.2,6.3,7.6,6.7,8,6.8C8.5,7,9.1,6.9,9.5,6.6z"/>
</svg>
