<?xml version="1.0" encoding="utf-8"?>
<!-- Generator: Adobe Illustrator 21.0.0, SVG Export Plug-In . SVG Version: 6.00 Build 0)  -->
<svg version="1.1" id="waterfall" xmlns="http://www.w3.org/2000/svg" xmlns:xlink="http://www.w3.org/1999/xlink" x="0px" y="0px"
	 viewBox="0 0 9.8 8.4" style="enable-background:new 0 0 9.8 8.4;" xml:space="preserve">
<style type="text/css">
	.st0{fill:none;stroke:#2057F2;stroke-miterlimit:10;}
</style>
<title>waterfall</title>
<path class="st0" d="M0.4,0.5h6c1.1,0.1,1.9,0.9,2,2v3"/>
<path class="st0" d="M2.4,5.5v-3c0-1,0-2-1-2"/>
<path class="st0" d="M6.4,5.5v-3c0-1,0-2-1-2"/>
<path class="st0" d="M4.4,5.5v-3c0-1,0-2-1-2"/>
<path class="st0" d="M0.4,8.1l0.9-1.2c0.2-0.3,0.6-0.4,1-0.2c0.1,0.1,0.2,0.1,0.2,0.2l0.3,0.4c0.2,0.3,0.6,0.4,1,0.2
	C3.9,7.5,3.9,7.4,4,7.3l0.3-0.4c0.2-0.3,0.6-0.4,1-0.2c0.1,0.1,0.2,0.1,0.2,0.2l0.3,0.4c0.2,0.3,0.7,0.4,1,0.2C6.9,7.5,7,7.4,7,7.3
	L7.3,7c0.2-0.3,0.7-0.4,1-0.2C8.4,6.8,8.5,6.9,8.5,7l0.9,1.2"/>
</svg>
